HIERARCHY
ROOT ui
{
	 OFFSET 0 0 0
	 CHANNELS 3 XPosition YPosition Z Position
	 EndSite
	 {
	 OFFSET 0 -1 0
	 }
}
ROOT li
{
	 OFFSET 0 0 0
	 CHANNELS 3 XPosition YPosition Z Position
	 EndSite
	 {
	 OFFSET 0 -1 0
	 }
}
ROOT ul
{
	 OFFSET 0 0 0
	 CHANNELS 3 XPosition YPosition Z Position
	 EndSite
	 {
	 OFFSET 0 -1 0
	 }
}
ROOT ll
{
	 OFFSET 0 0 0
	 CHANNELS 3 XPosition YPosition Z Position
	 EndSite
	 {
	 OFFSET 0 -1 0
	 }
}
ROOT tt
{
	 OFFSET 0 0 0
	 CHANNELS 3 XPosition YPosition Z Position
	 EndSite
	 {
	 OFFSET 0 -1 0
	 }
}
ROOT tb
{
	 OFFSET 0 0 0
	 CHANNELS 3 XPosition YPosition Z Position
	 EndSite
	 {
	 OFFSET 0 -1 0
	 }
}
ROOT td
{
	 OFFSET 0 0 0
	 CHANNELS 3 XPosition YPosition Z Position
	 EndSite
	 {
	 OFFSET 0 -1 0
	 }
}
ROOT v
{
	 OFFSET 0 0 0
	 CHANNELS 3 XPosition YPosition Z Position
	 EndSite
	 {
	 OFFSET 0 -1 0
	 }
}
ROOT bn
{
	 OFFSET 0 0 0
	 CHANNELS 3 XPosition YPosition Z Position
	 EndSite
	 {
	 OFFSET 0 -1 0
	 }
}
MOTION
Frames: 10
Frame Time: 0.002
0.014160189628601074	0.004107271194458008	0		0.4615568542480469	-2.294407958984375	0		-1.055575439453125	-0.06536634826660156	0		-0.6969776611328125	-2.343006591796875	0		1.900276611328125	-0.70449267578125	0		3.478009765625	-0.33300482177734375	0		4.7552275390625	-0.21557119750976564	0		5.88010546875	0.35930303955078124	0		-0.31110003662109376	5.87159326171875	0		
0.013815016746520995	0.004344817161560059	0		0.51307666015625	-2.30169580078125	0		-1.0599520263671875	-0.06805968475341796	0		-0.6305092163085938	-2.35541015625	0		1.9297821044921875	-0.7176026611328125	0		3.475487548828125	-0.34984219360351565	0		4.77095458984375	-0.2076226806640625	0		5.86268505859375	0.34600436401367185	0		-0.2772160339355469	5.87850390625	0		
0.001413815975189209	0.0017329709529876709	0		0.48363015747070315	-2.30115576171875	0		-1.048426025390625	-0.07787355041503906	0		-0.6689472045898438	-2.353743408203125	0		1.9172283935546874	-0.73327685546875	0		3.4860439453125	-0.35579556274414065	0		4.78040673828125	-0.22460821533203126	0		5.86241796875	0.3461370849609375	0		-0.27739486694335935	5.8787822265625	0		
0.0059774951934814455	-0.0020169439315795897	0		0.4971563720703125	-2.300013427734375	0		-1.052864990234375	-0.08149446105957031	0		-0.6395330810546875	-2.36371630859375	0		1.9276845703125	-0.745158203125	0		3.496573974609375	-0.36173626708984374	0		4.7909912109375	-0.22559788513183593	0		5.86213330078125	0.3462735290527344	0		-0.3116377563476562	5.8724306640625	0		
0.005557983875274658	-0.0016895049810409545	0		0.4516131286621094	-2.30225732421875	0		-1.0432982177734376	-0.08222254943847657	0		-0.693158447265625	-2.373832275390625	0		1.9301240234375	-0.7559404907226562	0		3.5192080078125	-0.35478466796875	0		4.79260205078125	-0.2214906005859375	0		5.85833056640625	0.3620721130371094	0		-0.2957226867675781	5.881611328125	0		
0.005115231990814209	-0.001335878014564514	0		0.4841048889160156	-2.2982548828125	0		-1.0377950439453125	-0.08688145446777344	0		-0.6937083740234375	-2.373447021484375	0		1.935436279296875	-0.77673291015625	0		3.535517822265625	-0.3777591247558594	0		4.8131484375	-0.22156385803222656	0		5.8651455078125	0.362052978515625	0		-0.2958996276855469	5.881978515625	0		
0.004647735118865967	-9.575520157814026E-4	0		0.44562057495117186	-2.288516845703125	0		-1.0342366943359376	-0.083493896484375	0		-0.6942889404296875	-2.373035400390625	0		1.992757568359375	-0.7940300903320312	0		3.52911328125	-0.36948895263671877	0		4.81757958984375	-0.2304645233154297	0		5.86481103515625	0.3622243347167969	0		-0.2950969543457031	5.881361328125	0		
0.0041527080535888675	-5.556820034980774E-4	0		0.5307963256835937	-2.31000634765625	0		-1.038765869140625	-0.08600041961669921	0		-0.62701513671875	-2.384287353515625	0		1.9831026611328124	-0.8056339721679687	0		3.550376220703125	-0.39148153686523435	0		4.8329814453125	-0.23946025085449218	0		5.8644560546875	0.3624222106933594	0		-0.2602546691894531	5.88642333984375	0		
-0.02237204360961914	1.3334399461746216E-4	0		0.47620999145507814	-2.30405859375	0		-1.0263985595703125	-0.09565624237060547	0		-0.6327094116210937	-2.388780517578125	0		1.9764659423828126	-0.8122456665039063	0		3.5498310546875	-0.3912319641113281	0		4.83836181640625	-0.2473345489501953	0		5.86407958984375	0.36265643310546875	0		-0.29454971313476563	5.88120703125	0		
0.0030664920806884764	3.1511598825454713E-4	0		0.512423828125	-2.315012939453125	0		-1.0188922119140624	-0.0882421646118164	0		-0.6796180419921874	-2.410831787109375	0		1.97875390625	-0.8229251098632813	0		3.566015869140625	-0.4141300964355469	0		4.8586044921875	-0.2653363037109375	0		5.87498779296875	0.33843533325195313	0		-0.27775408935546875	5.88849365234375	0		
